<svg width="16" height="16" viewBox="0 0 16 16" fill="none" xmlns="http://www.w3.org/2000/svg">
<path d="M1.33317 1.33337C0.965171 1.33337 0.666504 1.63204 0.666504 2.00004V8.66671C0.666504 9.03471 0.965171 9.33338 1.33317 9.33338H2.6665C3.0345 9.33338 3.33317 9.03471 3.33317 8.66671V2.00004C3.33317 1.63204 3.0345 1.33337 2.6665 1.33337H1.33317ZM5.99984 1.33337C5.26317 1.33337 4.66651 1.93004 4.66651 2.66671V9.32817C4.66651 9.6815 4.80649 10.0196 5.05583 10.2696L8.74203 13.9636C9.13069 14.3529 9.76018 14.3554 10.1522 13.9701C10.3969 13.7294 10.5016 13.379 10.4282 13.043L9.76546 10H13.9998C14.7365 10 15.3332 9.40337 15.3332 8.66671V7.33468C15.3332 7.15401 15.2964 6.97464 15.2251 6.80864L13.2199 2.14067C13.0099 1.65067 12.5273 1.33337 11.9946 1.33337L5.99984 1.33337Z" fill="#BBBBBB"/>
</svg>
