<svg width="20" height="20" viewBox="0 0 20 20" fill="none" xmlns="http://www.w3.org/2000/svg">
<path d="M10 20C15.5228 20 20 15.5228 20 10C20 4.47715 15.5228 0 10 0C4.47715 0 0 4.47715 0 10C0 15.5228 4.47715 20 10 20Z" fill="#FC3F1D"/>
<path d="M11.5688 16.25H13.7491V3.75H10.5756C7.38406 3.75 5.71 5.38375 5.71 7.79719C5.71 9.88063 6.79531 11.0553 8.71781 12.3312L9.88594 13.1022L8.38656 11.8447L5.41563 16.25H7.77938L10.9531 11.5144L9.84938 10.78C8.51563 9.88062 7.8625 9.18313 7.8625 7.66875C7.8625 6.33813 8.80094 5.43875 10.585 5.43875H11.56V16.25H11.5694H11.5688Z" fill="white"/>
</svg>
