<svg width="19" height="19" viewBox="0 0 19 19" fill="none" xmlns="http://www.w3.org/2000/svg">
    <g clip-path="url(#clip0_245:253)">
        <path d="M18.2121 15.1819C18.2121 15.5837 18.0524 15.9691 17.7683 16.2533C17.4842 16.5374 17.0988 16.697 16.6969 16.697H3.06056C2.65872 16.697 2.27333 16.5374 1.98919 16.2533C1.70504 15.9691 1.54541 15.5837 1.54541 15.1819V6.84855C1.54541 6.4467 1.70504 6.06132 1.98919 5.77717C2.27333 5.49303 2.65872 5.3334 3.06056 5.3334H6.09087L7.60602 3.06067H12.1515L13.6666 5.3334H16.6969C17.0988 5.3334 17.4842 5.49303 17.7683 5.77717C18.0524 6.06132 18.2121 6.4467 18.2121 6.84855V15.1819Z"
              stroke="#399C82" stroke-linecap="round" stroke-linejoin="round"/>
        <path d="M9.87881 13.6667C11.5524 13.6667 12.9091 12.31 12.9091 10.6364C12.9091 8.96279 11.5524 7.60608 9.87881 7.60608C8.20522 7.60608 6.84851 8.96279 6.84851 10.6364C6.84851 12.31 8.20522 13.6667 9.87881 13.6667Z"
              stroke="#399C82" stroke-linecap="round" stroke-linejoin="round"/>
    </g>
    <defs>
        <clipPath id="clip0_245:253">
            <rect width="18.1818" height="18.1818" fill="white" transform="translate(0.787903 0.787964)"/>
        </clipPath>
    </defs>
</svg>
